<svg class="svg-icon" style="width: 1em; height: 1em;vertical-align: middle;fill: currentColor;overflow: hidden;" viewBox="0 0 1024 1024" version="1.1" xmlns="http://www.w3.org/2000/svg"><path d="M341.333333 85.333333H128a42.666667 42.666667 0 0 0-42.666667 42.666667v213.333333a42.666667 42.666667 0 0 0 85.333334 0V170.666667h170.666666a42.666667 42.666667 0 0 0 0-85.333334z m0 768H170.666667v-170.666666a42.666667 42.666667 0 0 0-85.333334 0v213.333333a42.666667 42.666667 0 0 0 42.666667 42.666667h213.333333a42.666667 42.666667 0 0 0 0-85.333334zM896 85.333333h-213.333333a42.666667 42.666667 0 0 0 0 85.333334h170.666666v170.666666a42.666667 42.666667 0 0 0 85.333334 0V128a42.666667 42.666667 0 0 0-42.666667-42.666667z m0 554.666667a42.666667 42.666667 0 0 0-42.666667 42.666667v170.666666h-170.666666a42.666667 42.666667 0 0 0 0 85.333334h213.333333a42.666667 42.666667 0 0 0 42.666667-42.666667v-213.333333a42.666667 42.666667 0 0 0-42.666667-42.666667z"  /></svg>