<svg  xmlns="http://www.w3.org/2000/svg" xmlns:svg="http://www.w3.org/2000/svg">
 <style>.st0{fill:#007acc}.st1{fill:#fff}</style>
 <g class="layer">
  <title>Layer 1</title>
  <path d="m146.58,157.75c10.69,-15.61 88.29,-18.91 100.2,0c11.91,18.91 10.69,77.45 0,92.75c-10.69,15.31 -86.46,15.01 -100.2,0c-13.75,-15.01 -10.69,-77.15 0,-92.75z" fill="#0000ff" id="svg_31"/>
  <path d="m223.5,229.54l-8.75,-53.21l-11.95,0l-9.73,24.23l-12.51,-23.18l-10,0l-5.56,52.95c3.71,-0.7 9.08,-1.67 11.39,-4.48l2.78,-30.03l9.17,15.8l10.28,-0.26l9.17,-16.86c1.95,10.62 2.22,30.2 5,31.87c2.78,1.67 6.86,2.28 10.7,3.16z" fill="#ffffff" id="svg_9"/>
 </g>
</svg>