<?xml version="1.0" encoding="UTF-8" standalone="no"?>
<!-- Created with Inkscape (http://www.inkscape.org/) -->

<svg
   width="210mm"
   height="297mm"
   viewBox="0 0 210 297"
   version="1.1"
   id="svg1"
   xmlns="http://www.w3.org/2000/svg"
   xmlns:svg="http://www.w3.org/2000/svg">
  <defs
     id="defs1" />
  <g
     id="layer1">
    <g
       id="g9">
      <path
         id="rect7"
         style="font-variation-settings:'wdth' 87, 'wght' 700;fill:#0261ef;fill-opacity:1;stroke-width:1.04697;stroke-linecap:round;stroke-linejoin:round"
         d="M 92.091479,50.234487 A 56.737595,8.2317336 0.81040092 0 0 42.078511,57.6206 h -1.508952 v 0.802018 a 8.2314816,49.682869 0 0 0 -7.643461,49.468812 8.2314816,49.682869 0 0 0 5.774842,47.32425 57.916051,9.9870576 0.97188348 0 0 -0.182935,0.49661 57.916051,9.9870576 0.97188348 0 0 57.752031,10.96573 57.916051,9.9870576 0.97188348 0 0 57.978894,-8.51575 h 0.97306 v -0.80254 a 8.2314816,49.682869 0 0 0 7.64398,-49.4683 8.2314816,49.682869 0 0 0 -7.64398,-49.546326 V 57.6206 h -0.86765 a 56.737595,8.2317336 0.81040092 0 0 -55.423485,-7.348906 56.737595,8.2317336 0.81040092 0 0 -6.839376,-0.03721 z" />
      <path
         d="m 112.71876,76.357758 h 16.66496 v 64.162972 c 0,0 -7.26345,0.69249 -10.40315,-2.00603 -2.6131,-2.24593 -2.91748,-7.52259 -2.91748,-7.52259 V 93.303141 l 0.73688,2.82423 -13.77409,35.082229 H 92.766182 l -13.774098,-34.199659 0.850248,-3.7068 V 130.4906 c 0,0 0.41665,4.65697 -2.333984,7.02109 -3.166422,2.72149 -11.100003,3.00904 -11.100003,3.00904 V 76.357758 h 16.835007 l 14.624337,38.877292 z"
         id="text3"
         style="font-size:110.484px;font-family:Bahnschrift;-inkscape-font-specification:'Bahnschrift, @wght=700,wdth=87.0';font-variation-settings:'wdth' 87, 'wght' 700;fill:#ffffff;fill-opacity:1;stroke:none;stroke-width:558.012;stroke-linecap:round;stroke-linejoin:round;stroke-dasharray:none;stroke-opacity:1"
         aria-label="M" />
    </g>
  </g>
</svg>
