<svg fill="none" height="24" viewBox="0 0 24 24" width="24" xmlns="http://www.w3.org/2000/svg"><path d="m15 9 4-4m0 0v3m0-3h-3" stroke="#ffd75b" stroke-linecap="round" stroke-linejoin="round" stroke-width="1"/><path d="m15.5562 14.5477-.4555.4795s-1.0826 1.1398-4.0376-1.9713c-2.95498-3.11106-1.8724-4.25083-1.8724-4.25083l.28682-.30196c.70658-.74387.77318-1.93814.15672-2.81001l-1.26098-1.78349c-.76298-1.07911-2.2373-1.22166-3.11181-.30097l-1.5696 1.6525c-.43362.45652-.7242 1.04831-.68896 1.7048.09015 1.67952.80782 5.29306 4.81247 9.50926 4.24674 4.471 8.23144 4.6487 9.86094 4.4879.5154-.0509.9636-.3288 1.3248-.7091l1.4206-1.4956c.9589-1.0095.6885-2.7402-.5384-3.4464l-1.9105-1.0997c-.8056-.4637-1.787-.3275-2.4166.3354z" fill="#ffd75b"/></svg>